<mxfile host="app.diagrams.net" modified="2023-07-06T06:43:33.873Z" agent="Mozilla/5.0 (Macintosh; Intel Mac OS X 10_15_7) AppleWebKit/537.36 (KHTML, like Gecko) Chrome/112.0.0.0 Safari/537.36 Edg/112.0.0.0" version="21.6.1" etag="w1OI05uGn2RE-TE0FwIq" type="github">
  <diagram name="第 1 页" id="ftJg8_W7lE0SXEr1zvLX">
    <mxGraphModel>
      <root>
        <mxCell id="0" />
        <mxCell id="1" parent="0" />
      </root>
    </mxGraphModel>
  </diagram>
</mxfile>
